<mxfile host="app.diagrams.net" modified="2021-04-01T02:57:13.716Z" agent="5.0 (Macintosh; Intel Mac OS X 11_2_3) AppleWebKit/537.36 (KHTML, like Gecko) Chrome/89.0.4389.105 Safari/537.36" etag="4T3PvkTwKfWlo7Eo1lDA" version="14.5.4" type="github">
  <diagram id="UUzaLDQoE0WsGCHamaxI" name="Page-1">
    <mxGraphModel dx="946" dy="593" grid="1" gridSize="10" guides="1" tooltips="1" connect="1" arrows="1" fold="1" page="1" pageScale="1" pageWidth="3300" pageHeight="4681" math="0" shadow="0">
      <root>
        <mxCell id="0" />
        <mxCell id="1" parent="0" />
      </root>
    </mxGraphModel>
  </diagram>
</mxfile>
